<svg viewBox="0 0 589.7 236.1" xmlns="http://www.w3.org/2000/svg" xmlns:xlink="http://www.w3.org/1999/xlink" id="Layer_1" overflow="hidden"><g><path d="M62.4 167C66 167.9 70 167.9 74.6 167.2 82.9 165.8 90.4 162.3 97.3 156.6 105.3 150 110.9 141.6 114 131.1 117.4 119.6 120.9 108.2 124.5 96.7 130.4 98.4 137.1 98.8 144.4 97.9 160.2 96.1 174.8 90.6 188.8 81.2 203.8 71.1 212.4 59.8 214.2 46.9 214.7 44.3 214.8 41.8 214.7 39.4 214.1 27.2 207.9 17.3 195.9 9.8 183.9 2.4 168.1-1 148.7-1.06581e-14 128 1.2 108.7 7.1 91.3 17.5 73.1 28.5 63.8 40.6 63.2 53.4 63.1 54.9 63.2 56.3 63.4 57.7 64.4 64.1 68.1 69.1 74.4 72.9 78.9 75.5 82.9 76.9 86.5 77 89.1 77.2 90.9 76.6 92.1 75.2 93.2 73.7 92.8 72.7 90.8 72.1 88 71.3 86.1 67.7 85.2 61.3 84.4 55.6 85.3 50.1 87.9 44.7 92.1 37 99.1 30.2 108.9 24.5 119.5 18.5 131.5 15 144.8 14.3 147.4 14.2 149.9 14.2 152.2 14.4 149.8 15.6 147.2 17 144.5 18.8 126.1 30.3 113.3 47.6 106.1 70.2 100.9 86.5 95.9 102.9 91.2 119.2 88.2 129.8 83.8 138 78.1 143.8 73.5 148.5 68.8 150.9 63.9 151 61.5 151 59.3 150.2 57.3 148.6 55.4 147 54.2 145.3 53.9 143.5 53.8 142.7 53.5 142.2 53 141.9 52.5 141.6 52 141.6 51.4 141.7 49.8 142.3 48.9 143.4 48.8 145.2 48.6 148.1 48.7 150.6 49.1 152.7 50.5 160.4 55 165 62.4 167ZM132.6 71.9C139.6 50.7 146.1 36.8 151.8 30 155.5 25.3 160.3 20.8 166.1 16.6 180.2 20.9 187.5 28.8 188.3 39.9 188.5 42.7 188.1 45.6 187.1 48.5 184.7 56.8 179.4 63.7 171.4 69.5 164.1 74.7 155.8 78 146.4 79.5 140.9 80.5 135.3 80.7 129.8 80.3 130.6 77.5 131.6 74.7 132.6 71.9Z" fill="#A70000"/><path d="M179.7 151.3C185.5 150.8 191.3 150.4 197.1 150 198.4 149.9 199.2 149.2 199.7 148 204.8 135.5 210 123.1 215.4 110.7 218.1 104.6 221.3 98.9 225 93.5 229.9 86.5 234.2 83 237.7 82.9 240.2 82.8 241.5 84.2 241.6 87.2 241.7 91.2 240.4 96.1 237.8 101.9 235 108 232.2 114.1 229.5 120.2 227.4 124.7 226.5 128.9 226.7 132.8 226.9 138.2 229 142.2 232.7 144.9 236.5 147.6 241.1 148.9 246.7 148.7 254.4 148.4 261.8 145.7 269 140.5 271.6 138.7 274 136.6 276.4 134.2 277.9 137.9 280.3 141 283.6 143.5 288.9 147.4 296 149.3 304.7 149.4 321.3 149.6 334.6 144.8 344.9 134.8 345.8 142 348.9 146.8 354 149.1 357.3 150.6 360.9 151.4 364.8 151.7 370.7 152 376.4 151.2 382 149.3 374 162.2 366.1 175.1 358.5 188.1 356.3 191.9 357.5 193.9 362 194.1 364.8 194.3 367.9 193.6 371.2 192.2 374.5 190.8 376.9 188.9 378.3 186.6 386.9 173 395.7 159.4 404.8 146 408 149.9 412.2 152 417.5 152.4 422.5 152.7 427.4 151.8 432.1 149.6 435.2 154 440.1 156.4 446.9 156.9 453.9 157.5 460.7 156.2 467.2 153.2 468.6 155.6 470.7 157.6 473.6 159.4 477.2 161.7 481.3 163.1 485.9 163.8 491.6 164.6 497.8 164.2 504.5 162.6 507.2 164.5 510.4 165.8 514.1 166.4 522.5 167.8 531.1 166.3 539.9 161.8 544.2 159.6 549.2 156 554.9 151.1 561.6 145.2 565.3 140.4 566.1 136.9 566.5 135.1 565.9 133.3 564.4 131.5 562.9 129.8 561.4 128.7 559.8 128.4 559 128.2 558.3 128.5 557.9 129.1 553.4 135.5 547.7 141.3 540.8 146.6 539 147.9 536.4 149.4 533 151.1 528.6 153.3 526.1 153.8 525.4 152.6 525.1 152.1 525.3 151.5 526.2 150.7 532.2 144.5 535.9 137.9 537.1 130.8 537.9 126.2 537.3 121.4 535 116.5 533 112.7 531 109 529 105.3 527 101.6 526 99.2 526.2 98.2 526.5 96.2 528.1 94.3 531 92.5 534.7 90 536.9 88.5 537.4 87.9 539 86.3 540 84.6 540.3 82.9 541 78.8 538.8 76.3 533.7 75.4 527.7 74.4 523.3 76.5 520.6 81.8 520 82.9 518.4 84.9 516 87.8 500.5 105.9 486.8 119.4 474.3 128.2 470.3 131.1 467.6 134.8 466.1 139.1 462.6 140.9 459.2 141.5 456.1 140.7 454 140.2 452.6 138.9 451.9 136.7 466.4 124.1 475 110.4 477.2 95.4 477.9 90.2 476.8 85.9 474 82.6 471.4 79.7 467.8 78 463.3 77.4 458.9 76.9 454.6 77.5 450.6 79.4 450.6 77.7 450 76.6 448.7 76.2 444.6 74.6 440.6 73 436.5 71.5 434.9 70.9 433.6 71.3 432.6 72.7 423.3 85.9 414.2 99.3 405.3 112.7 404.9 113 404.5 113.3 404.2 113.9 400.6 119.5 396.5 124.3 392.1 128.3 384.5 135.3 378.1 138.6 372.9 138.3 367.3 138 364.7 134.4 365 127.6 365.8 114.5 374.4 93.6 392.5 65.3 402.2 50.4 411.8 38.1 421.1 28.6 429.7 19.8 435.5 15.8 438.2 16.6 439.7 17 440.3 18.5 440.1 21 439.7 25.1 437.3 30.7 433.1 37.7 428.7 45.4 423.3 52.7 416.9 59.9 405.9 72.3 394.9 81.8 383.6 88.5 381 89.9 380.1 92.6 380.9 96.4 381.2 97.9 382 98.7 383.1 98.8 384.1 98.9 385.3 98.5 386.7 97.6 399.8 89.5 412.7 78.1 425.6 63.6 432.7 55.5 439.1 46.6 444.9 37 451.2 26.5 454.9 18 455.6 11.4 456.4 4.7 454 1.1 448.4 0.5 440.4-0.3 428.6 5 413.8 16.7 397.8 29.3 383.1 45.5 369.9 65.4 358.3 82.9 350.9 98.3 347.2 111.6 342.1 118.7 338.5 123.3 336.3 125.2 328.2 132.7 319.9 136.4 311.2 136.3 302.1 136.2 297.6 132.2 298 124.1 298.1 123.4 298.2 122.6 298.2 121.9 308.9 118.9 319.4 113.3 329.8 105.1 341.7 95.8 348.1 86.6 348.5 77.3 348.8 70.6 344.1 67 334.5 66.7 320.4 66.3 306.6 72.5 293.5 85.4 283.5 95.2 277.5 105.1 275.3 114.9 268.4 125.7 262 131.2 255.7 131.3 251.6 131.4 249.5 129.7 249.4 126.2 249.3 123 251.5 116.3 256.2 106.3 261 95.7 263.7 88.7 264 85.4 264.1 84.3 264.2 83.2 264.2 82.2 264.1 77.6 262.8 74 260.1 71.2 257.5 68.4 254 67 249.7 67 242.6 66.8 236.1 70 230.3 76.6 239.8 55.8 249.7 35 260 14.4 261 12.2 261.5 10.5 261.5 9.1 261.5 6.4 259.5 5.3 255.7 5.8 252 6.3 247.9 7.9 243.5 10.6 239 13.3 236.2 16 234.9 18.6 214.1 61.9 195.3 105.7 178.5 149.7 178 150.8 178.4 151.4 179.7 151.3ZM514.4 110.5C515.9 114.7 516.2 119.8 515.2 125.7 514.6 129.3 513.6 132.8 512.2 136.2 506.1 150.7 497.3 157 485.6 155.2 481.6 154.6 478.8 152.9 477.4 150 478.1 150.2 478.8 150.4 479.7 150.5 486 151.4 490.7 149.3 493.9 144.2 495 142.5 495.7 140.8 495.9 139.2 496.4 136.1 495.4 133.5 493 131.2 500.6 126 507.7 119.1 514.4 110.5ZM437.2 96.2C438.9 93.7 441.3 91.6 444.3 90 447.3 88.4 450.1 87.7 452.7 88 456.6 88.5 458.3 91 457.8 95.5 457 101.8 453.6 109.3 447.5 118.2 437.6 132.6 428.5 139.4 419.6 138.6 415.7 138.2 413 137 411.7 134.8 421.1 120.5 429.7 107.6 437.2 96.2ZM314.7 90.3C322.9 80.5 329.7 75.7 334.8 75.9 337.3 76 338.5 77.1 338.4 79.2 338.2 85.1 333.2 91.5 323.6 98.5 316.2 104.1 308.6 108.6 300.7 111.9 303.3 105.7 307.9 98.5 314.7 90.3Z" fill="#A70000"/><path d="M589.7 225.9C506.9 191.8 345.2 202.8 340.1 205.1 351.7 194.8 341.3 193.4 341.3 193.4 328.1 188.9 279.4 199.7 279.5 199.9 290.8 189 304.9 187.1 312 183.9 319.1 180.8 313.1 172.7 313.1 172.7 289.2 165.8 208.1 175.7 136.1 193.9 64.9 210.5 2.5 235.4 0.1 236 8.4 234.4 79.1 214.1 149.8 201.2 220.4 187.1 290.9 180.6 290.8 180.5 272 187.5 248 201.9 239.2 208.2 230.3 214.4 232.5 223 242.9 222.5 253.1 221.7 311 203.1 321.8 203.2 332.4 202.9 315.9 214.3 312.7 217.8 309.5 221.3 321.4 227.1 321.3 227.1 353.4 213.3 417 212 472.8 217.5 528.8 222.4 576.9 234.2 581.3 234.2 590.2 234.8 589.7 225.9 589.7 225.9Z" fill="#A70000"/><path d="M0.1 236C0.1 236.1 0 236.1 0.1 236 0 236.1 0 236.1 0.1 236Z" fill="#A70000"/></g></svg>